<svg xmlns="http://www.w3.org/2000/svg" viewBox="0 0 400 640">
<defs><linearGradient id="skin" x1="0" y1="0" x2="1" y2="1"><stop stop-color="#d8b899"/><stop offset="1" stop-color="#9b755b"/></linearGradient><linearGradient id="shadow" x1="0" y1="0" x2="0" y2="1"><stop stop-color="#f3d9bf"/><stop offset="1" stop-color="#a97f61"/></linearGradient></defs>
<rect width="400" height="640" rx="34" fill="#0c0b09"/>
<ellipse cx="200" cy="602" rx="98" ry="18" fill="#d5aa52" opacity=".12"/>
<circle cx="200" cy="82" r="42" fill="url(#skin)"/>
<path d="M182 120 L178 151 L222 151 L218 120" fill="url(#skin)"/>
<path d="M72 158 Q200 132 328 158 L252 330 Q200 358 148 330 Z" fill="url(#shadow)"/>
<path d="M72 162 Q42 230 52 360" fill="none" stroke="url(#skin)" stroke-width="30" stroke-linecap="round"/>
<path d="M328 162 Q358 230 348 360" fill="none" stroke="url(#skin)" stroke-width="30" stroke-linecap="round"/>
<path d="M148 320 Q138 365 146 420 L178 590" fill="none" stroke="url(#skin)" stroke-width="46" stroke-linecap="round"/>
<path d="M252 320 Q262 365 254 420 L222 590" fill="none" stroke="url(#skin)" stroke-width="46" stroke-linecap="round"/>
<path d="M173 82 Q200 52 227 82" fill="none" stroke="#251b16" stroke-width="13" stroke-linecap="round"/>
<circle cx="186" cy="84" r="3" fill="#2c211c"/><circle cx="214" cy="84" r="3" fill="#2c211c"/>
<path d="M190 102 Q200 108 210 102" fill="none" stroke="#744f43" stroke-width="3" stroke-linecap="round"/>
<text x="200" y="622" text-anchor="middle" fill="#d5aa52" font-family="Arial" font-size="13" letter-spacing="4">XL MANNEQUIN</text>
</svg>